<svg width="626" height="279" viewBox="0 0 626 279" fill="none" xmlns="http://www.w3.org/2000/svg">
<circle cx="64.5" cy="227.5" r="10.5" stroke="black" stroke-width="8"/>
<circle cx="115.5" cy="256.5" r="10.5" stroke="black" stroke-width="8"/>
<g filter="url(#filter0_d_2_30)">
<path d="M65.0001 56.5H90.2501H115.5M135 237.5C194.03 197.444 169.458 153.89 115.5 72.5H65.0001C3.83562 159.416 -7.92738 198.294 40.0001 237.5M105.5 216L71.0001 267M52.0001 11C78.757 13.6323 95.0718 12.7337 127 6C120.166 18.8873 116.334 26.1127 109.5 39H71.0001C64.11 25.5277 59.8093 20.0707 52.0001 11Z" stroke="black" stroke-width="11" stroke-linejoin="round" shape-rendering="crispEdges"/>
</g>
<path d="M222.5 93V179.5H276.5" stroke="black" stroke-width="16" stroke-linecap="square"/>
<path fill-rule="evenodd" clip-rule="evenodd" d="M380.87 88.3574C374.482 85.5551 367.422 84 360 84C331.281 84 308 107.281 308 136C308 149.92 313.469 162.562 322.376 171.895L331.821 158.406C326.925 152.258 324 144.47 324 136C324 116.118 340.118 100 360 100C363.993 100 367.833 100.65 371.422 101.85L380.87 88.3574ZM344.339 168.424C349.074 170.715 354.387 172 360 172C379.882 172 396 155.882 396 136C396 125.883 391.827 116.74 385.107 110.2L394.368 96.9753C405.179 106.504 412 120.456 412 136C412 164.719 388.719 188 360 188C350.97 188 342.478 185.698 335.078 181.65L344.339 168.424Z" fill="black"/>
<path fill-rule="evenodd" clip-rule="evenodd" d="M425.5 112.167V179.5V187.5H441.5V179.5V135.017L425.5 112.167ZM441.5 106.963V106.879L498.285 188H515V186.5V86.5V84H499V86.5V161.121L445.015 84H425.5V84.1122L441.5 106.963Z" fill="black"/>
<path fill-rule="evenodd" clip-rule="evenodd" d="M536 112.167V179.5V187.5H552V179.5V135.017L536 112.167ZM552 106.963V106.879L608.785 188H625.5V186.5V86.5V84H609.5V86.5V161.121L555.515 84H536V84.1122L552 106.963Z" fill="black"/>
<defs>
<filter id="filter0_d_2_30" x="0.935547" y="0.499786" width="177.749" height="277.582" filterUnits="userSpaceOnUse" color-interpolation-filters="sRGB">
<feFlood flood-opacity="0" result="BackgroundImageFix"/>
<feColorMatrix in="SourceAlpha" type="matrix" values="0 0 0 0 0 0 0 0 0 0 0 0 0 0 0 0 0 0 127 0" result="hardAlpha"/>
<feOffset dy="4"/>
<feGaussianBlur stdDeviation="2"/>
<feComposite in2="hardAlpha" operator="out"/>
<feColorMatrix type="matrix" values="0 0 0 0 0 0 0 0 0 0 0 0 0 0 0 0 0 0 0.25 0"/>
<feBlend mode="normal" in2="BackgroundImageFix" result="effect1_dropShadow_2_30"/>
<feBlend mode="normal" in="SourceGraphic" in2="effect1_dropShadow_2_30" result="shape"/>
</filter>
</defs>
</svg>
